<svg xmlns="http://www.w3.org/2000/svg" width="28" height="28" viewBox="0 0 28 28" fill="none">
  <path d="M21.6863 15.3157C21.9389 15.4721 21.9369 15.841 21.6863 15.9973L14.4234 20.5038C14.1648 20.6642 13.836 20.6642 13.5774 20.5038L6.31444 15.9953C6.06185 15.839 6.06185 15.4721 6.31444 15.3137L8.27903 14.0889L13.5814 17.3545C13.84 17.5129 14.1648 17.5129 14.4214 17.3545L19.7237 14.0889L21.6883 15.3137L21.6863 15.3157Z" fill="currentColor"/>
  <path d="M17.5508 10.8896L14.4235 12.8262C14.1649 12.9865 13.8382 12.9865 13.5796 12.8262L10.4483 10.8896L8.8345 11.884C8.57991 12.0403 8.57991 12.4112 8.8345 12.5676L13.5796 15.4884C13.8382 15.6467 14.1649 15.6467 14.4215 15.4884L19.1446 12.5656C19.3971 12.4092 19.3971 12.0423 19.1446 11.884L17.5488 10.8917L17.5508 10.8896Z" fill="currentColor"/>
  <path d="M14.421 7.12129C14.1624 6.96091 13.8356 6.95891 13.577 7.11928L10.9829 8.71501C10.7283 8.87137 10.7283 9.24023 10.9829 9.3966L13.5589 10.9903C13.8176 11.1507 14.1443 11.1507 14.4029 10.9903L16.9729 9.39459C17.2255 9.23823 17.2255 8.87137 16.9729 8.713L14.421 7.12129Z" fill="currentColor"/>
</svg>
